<mxfile host="app.diagrams.net" modified="2020-09-30T12:00:27.690Z" agent="5.0 (Macintosh; Intel Mac OS X 10_13_6) AppleWebKit/537.36 (KHTML, like Gecko) Chrome/85.0.4183.102 Safari/537.36" etag="0A9dYYNbecl3zB-sZhym" version="13.7.6" type="github">
  <diagram id="mCk_TkzkjE1FL45pAMwu" name="Page-1">
    <mxGraphModel dx="1186" dy="1847" grid="1" gridSize="10" guides="1" tooltips="1" connect="1" arrows="1" fold="1" page="1" pageScale="1" pageWidth="850" pageHeight="1100" math="0" shadow="0">
      <root>
        <mxCell id="0" />
        <mxCell id="1" parent="0" />
        <mxCell id="92FaaCx8XRrmpqcB6tEL-8" style="edgeStyle=orthogonalEdgeStyle;rounded=0;orthogonalLoop=1;jettySize=auto;html=1;exitX=0.5;exitY=0.5;exitDx=0;exitDy=0;exitPerimeter=0;" parent="1" source="92FaaCx8XRrmpqcB6tEL-1" target="92FaaCx8XRrmpqcB6tEL-2" edge="1">
          <mxGeometry relative="1" as="geometry" />
        </mxCell>
        <mxCell id="92FaaCx8XRrmpqcB6tEL-1" value="Actor" style="shape=umlActor;verticalLabelPosition=bottom;verticalAlign=top;html=1;outlineConnect=0;" parent="1" vertex="1">
          <mxGeometry x="80" y="200" width="30" height="60" as="geometry" />
        </mxCell>
        <mxCell id="92FaaCx8XRrmpqcB6tEL-9" style="edgeStyle=orthogonalEdgeStyle;rounded=0;orthogonalLoop=1;jettySize=auto;html=1;entryX=0;entryY=0.5;entryDx=0;entryDy=0;" parent="1" source="92FaaCx8XRrmpqcB6tEL-2" target="92FaaCx8XRrmpqcB6tEL-4" edge="1">
          <mxGeometry relative="1" as="geometry" />
        </mxCell>
        <object label="" id="92FaaCx8XRrmpqcB6tEL-2">
          <mxCell style="shape=cylinder3;whiteSpace=wrap;html=1;boundedLbl=1;backgroundOutline=1;size=15;" parent="1" vertex="1">
            <mxGeometry x="200" y="200" width="80" height="80" as="geometry" />
          </mxCell>
        </object>
        <mxCell id="92FaaCx8XRrmpqcB6tEL-10" style="edgeStyle=orthogonalEdgeStyle;rounded=0;orthogonalLoop=1;jettySize=auto;html=1;entryX=0;entryY=0;entryDx=50;entryDy=0;entryPerimeter=0;" parent="1" source="92FaaCx8XRrmpqcB6tEL-4" target="92FaaCx8XRrmpqcB6tEL-5" edge="1">
          <mxGeometry relative="1" as="geometry" />
        </mxCell>
        <mxCell id="92FaaCx8XRrmpqcB6tEL-4" value="" style="shape=process;whiteSpace=wrap;html=1;backgroundOutline=1;" parent="1" vertex="1">
          <mxGeometry x="330" y="130" width="120" height="50" as="geometry" />
        </mxCell>
        <mxCell id="92FaaCx8XRrmpqcB6tEL-11" style="edgeStyle=orthogonalEdgeStyle;rounded=0;orthogonalLoop=1;jettySize=auto;html=1;entryX=0.583;entryY=1.02;entryDx=0;entryDy=0;entryPerimeter=0;" parent="1" source="92FaaCx8XRrmpqcB6tEL-5" target="92FaaCx8XRrmpqcB6tEL-4" edge="1">
          <mxGeometry relative="1" as="geometry" />
        </mxCell>
        <mxCell id="92FaaCx8XRrmpqcB6tEL-13" style="edgeStyle=orthogonalEdgeStyle;rounded=0;orthogonalLoop=1;jettySize=auto;html=1;" parent="1" source="92FaaCx8XRrmpqcB6tEL-5" target="92FaaCx8XRrmpqcB6tEL-7" edge="1">
          <mxGeometry relative="1" as="geometry" />
        </mxCell>
        <mxCell id="92FaaCx8XRrmpqcB6tEL-5" value="" style="shape=cube;whiteSpace=wrap;html=1;boundedLbl=1;backgroundOutline=1;darkOpacity=0.05;darkOpacity2=0.1;" parent="1" vertex="1">
          <mxGeometry x="340" y="280" width="120" height="80" as="geometry" />
        </mxCell>
        <mxCell id="92FaaCx8XRrmpqcB6tEL-6" value="HDFS" style="shape=document;whiteSpace=wrap;html=1;boundedLbl=1;" parent="1" vertex="1">
          <mxGeometry x="610" y="195" width="120" height="80" as="geometry" />
        </mxCell>
        <mxCell id="92FaaCx8XRrmpqcB6tEL-12" style="edgeStyle=orthogonalEdgeStyle;rounded=0;orthogonalLoop=1;jettySize=auto;html=1;entryX=0;entryY=0;entryDx=120;entryDy=50;entryPerimeter=0;" parent="1" source="92FaaCx8XRrmpqcB6tEL-7" target="92FaaCx8XRrmpqcB6tEL-5" edge="1">
          <mxGeometry relative="1" as="geometry">
            <Array as="points">
              <mxPoint x="490" y="250" />
              <mxPoint x="490" y="330" />
            </Array>
          </mxGeometry>
        </mxCell>
        <mxCell id="92FaaCx8XRrmpqcB6tEL-14" style="edgeStyle=orthogonalEdgeStyle;rounded=0;orthogonalLoop=1;jettySize=auto;html=1;exitX=1;exitY=0.5;exitDx=0;exitDy=0;" parent="1" source="92FaaCx8XRrmpqcB6tEL-7" target="92FaaCx8XRrmpqcB6tEL-6" edge="1">
          <mxGeometry relative="1" as="geometry" />
        </mxCell>
        <mxCell id="92FaaCx8XRrmpqcB6tEL-7" value="" style="shape=datastore;whiteSpace=wrap;html=1;" parent="1" vertex="1">
          <mxGeometry x="500" y="190" width="70" height="90" as="geometry" />
        </mxCell>
        <mxCell id="92FaaCx8XRrmpqcB6tEL-15" value="PQS" style="text;html=1;strokeColor=none;fillColor=none;align=center;verticalAlign=middle;whiteSpace=wrap;rounded=0;rotation=0;" parent="1" vertex="1">
          <mxGeometry x="220" y="250" width="40" height="20" as="geometry" />
        </mxCell>
        <mxCell id="92FaaCx8XRrmpqcB6tEL-19" value="Hbase Masters" style="text;html=1;strokeColor=none;fillColor=none;align=center;verticalAlign=middle;whiteSpace=wrap;rounded=0;" parent="1" vertex="1">
          <mxGeometry x="360" y="140" width="40" height="20" as="geometry" />
        </mxCell>
        <mxCell id="92FaaCx8XRrmpqcB6tEL-20" value="Zookeeper" style="text;html=1;strokeColor=none;fillColor=none;align=center;verticalAlign=middle;whiteSpace=wrap;rounded=0;" parent="1" vertex="1">
          <mxGeometry x="385" y="320" width="40" height="20" as="geometry" />
        </mxCell>
        <mxCell id="92FaaCx8XRrmpqcB6tEL-21" value="Region Server" style="text;html=1;strokeColor=none;fillColor=none;align=center;verticalAlign=middle;whiteSpace=wrap;rounded=0;" parent="1" vertex="1">
          <mxGeometry x="515" y="240" width="40" height="20" as="geometry" />
        </mxCell>
        <mxCell id="92FaaCx8XRrmpqcB6tEL-22" value="Heap 32Gb/RS" style="text;html=1;strokeColor=none;fillColor=none;align=center;verticalAlign=middle;whiteSpace=wrap;rounded=0;" parent="1" vertex="1">
          <mxGeometry x="520" y="280" width="40" height="20" as="geometry" />
        </mxCell>
        <mxCell id="DUJLsGgjEpNp79UNtH5_-2" value="&lt;h1&gt;TableName: uat_rdf.historical_forecast&lt;/h1&gt;&lt;div&gt;&lt;div style=&quot;box-sizing: border-box ; font-family: &amp;#34;segoe ui&amp;#34; , , &amp;#34;apple color emoji&amp;#34; , &amp;#34;segoe ui emoji&amp;#34; , sans-serif ; font-size: 14px&quot;&gt;&lt;div style=&quot;box-sizing: border-box ; font-family: &amp;#34;menlo&amp;#34; , &amp;#34;monaco&amp;#34; , &amp;#34;consolas&amp;#34; , &amp;#34;courier new&amp;#34; , &amp;#34;courier&amp;#34; , monospace ; font-size: 12px&quot;&gt;&lt;em&gt;&lt;span style=&quot;background-color: #6888c9&quot;&gt;CREATE TABLE IF NOT EXISTS HISTORICAL_FORECAST(&lt;br&gt;&lt;/span&gt;&lt;/em&gt;&lt;em&gt;&lt;span style=&quot;background-color: #6888c9&quot;&gt;       BPN       INTEGER NOT NULL,&lt;br&gt;&lt;/span&gt;&lt;/em&gt;&lt;em&gt;&lt;span style=&quot;background-color: #6888c9&quot;&gt;       ROT       INTEGER NOT NULL,&lt;br&gt;&lt;/span&gt;&lt;/em&gt;&lt;em&gt;&lt;span style=&quot;background-color: #6888c9&quot;&gt;       FD        CHAR(10) NOT NULL,&lt;br&gt;&lt;/span&gt;&lt;/em&gt;&lt;em&gt;&lt;span style=&quot;background-color: #6888c9&quot;&gt;       FV        CHAR(10) NOT NULL,&lt;br&gt;&lt;/span&gt;&lt;/em&gt;&lt;em&gt;&lt;span style=&quot;background-color: #6888c9&quot;&gt;       CF1.CD        CHAR(10),&lt;br&gt;&lt;/span&gt;&lt;/em&gt;&lt;em&gt;&lt;span style=&quot;background-color: #6888c9&quot;&gt;       CF1.EN        INTEGER,&lt;br&gt;&lt;/span&gt;&lt;/em&gt;&lt;em&gt;&lt;span style=&quot;background-color: #6888c9&quot;&gt;       CF1.PTP   DOUBLE,&lt;br&gt;&lt;/span&gt;&lt;/em&gt;&lt;em&gt;&lt;span style=&quot;background-color: #6888c9&quot;&gt;       CF1.PTG   DOUBLE,&lt;br&gt;&lt;/span&gt;&lt;/em&gt;&lt;em&gt;&lt;span style=&quot;background-color: #6888c9&quot;&gt;       CF1.WTH   DOUBLE,&lt;br&gt;&lt;/span&gt;&lt;/em&gt;&lt;em&gt;&lt;span style=&quot;background-color: #6888c9&quot;&gt;       CF1.BNWW  DOUBLE,&lt;br&gt;&lt;/span&gt;&lt;/em&gt;&lt;em&gt;&lt;span style=&quot;background-color: #6888c9&quot;&gt;       CF1.INWS  DOUBLE,&lt;br&gt;&lt;/span&gt;&lt;/em&gt;&lt;em&gt;&lt;span style=&quot;background-color: #6888c9&quot;&gt;       CF1.EDS   DOUBLE,&lt;br&gt;&lt;/span&gt;&lt;/em&gt;&lt;em&gt;&lt;span style=&quot;background-color: #6888c9&quot;&gt;       CONSTRAINT PK PRIMARY KEY(BPN,ROT,FD,FV))&lt;br&gt;&lt;/span&gt;&lt;/em&gt;&lt;em&gt;&lt;span style=&quot;background-color: #6888c9&quot;&gt;       SALT_BUCKETS = 64, BLOOMFILTER =&#39;ROW&#39;;&lt;/span&gt;&lt;/em&gt;&lt;/div&gt;&lt;/div&gt;&lt;/div&gt;" style="text;html=1;strokeColor=none;fillColor=none;spacing=5;spacingTop=-20;whiteSpace=wrap;overflow=hidden;rounded=0;" vertex="1" parent="1">
          <mxGeometry x="10" y="400" width="370" height="310" as="geometry" />
        </mxCell>
        <mxCell id="DUJLsGgjEpNp79UNtH5_-4" value="&lt;h1&gt;Table Details&lt;/h1&gt;&lt;p&gt;Total Size: 53Gb&lt;/p&gt;&lt;p&gt;# of Records: 427Million&lt;/p&gt;&lt;p&gt;# of Regions/Partitions: 64&lt;/p&gt;&lt;p&gt;# of records per partitions: 6.6million&lt;/p&gt;&lt;p&gt;&lt;br&gt;&lt;/p&gt;" style="text;html=1;strokeColor=none;fillColor=none;spacing=5;spacingTop=-20;whiteSpace=wrap;overflow=hidden;rounded=0;" vertex="1" parent="1">
          <mxGeometry x="420" y="400" width="190" height="170" as="geometry" />
        </mxCell>
        <mxCell id="DUJLsGgjEpNp79UNtH5_-5" value="&lt;h1&gt;Query&lt;/h1&gt;&lt;p&gt;&lt;span style=&quot;font-family: &amp;#34;menlo&amp;#34; ; font-size: 11.3333px ; background-color: rgb(255 , 255 , 255)&quot;&gt;SELECT ROT AS &quot;branchNumber&quot;, BPN AS &quot;baseProductNumber&quot;, CD AS &quot;computeDate&quot;, FD AS &quot;date&quot;, CN AS &quot;run&quot;, PTP AS &quot;productTradePercentage&quot;, PTG AS &quot;productTradePercentageOverride&quot;, WTH AS &quot;weatherFactor&quot;, BNWW AS &quot;baseNWS&quot;, INWS AS &quot;stepNWS&quot;, EDS AS &quot;expectedDailySales&quot; FROM UAT_RDF.HISTORICAL_FORECAST WHERE ROT = 2001 AND BPN = 50017417 AND CD = &#39;2020-09-15&#39; AND FD &amp;gt;= &#39;2020-09-14&#39; AND FD &amp;lt;= &#39;2020-10-05&#39;;&lt;/span&gt;&lt;br&gt;&lt;/p&gt;" style="text;html=1;strokeColor=none;fillColor=none;spacing=5;spacingTop=-20;whiteSpace=wrap;overflow=hidden;rounded=0;" vertex="1" parent="1">
          <mxGeometry x="420" y="570" width="410" height="180" as="geometry" />
        </mxCell>
        <mxCell id="DUJLsGgjEpNp79UNtH5_-7" value="&lt;h1&gt;Apigee, Nginix &amp;amp; Spring Boot&lt;/h1&gt;" style="text;html=1;strokeColor=none;fillColor=none;spacing=5;spacingTop=-20;whiteSpace=wrap;overflow=hidden;rounded=0;" vertex="1" parent="1">
          <mxGeometry x="90" width="190" height="120" as="geometry" />
        </mxCell>
      </root>
    </mxGraphModel>
  </diagram>
</mxfile>
